<svg width="332" height="300" viewBox="0 0 332 300" fill="none" xmlns="http://www.w3.org/2000/svg">
<path d="M153.193 23.3334H173.569L173.053 29.1667H159.14C158.367 29.1667 157.625 29.474 157.078 30.021C156.531 30.568 156.224 31.3098 156.224 32.0834C156.224 32.8569 156.531 33.5988 157.078 34.1458C157.625 34.6928 158.367 35 159.14 35H172.537L171.767 43.683L164.974 45.223L158.184 43.68L157.904 40.5767C157.874 40.1918 157.769 39.8165 157.593 39.4727C157.418 39.1289 157.176 38.8233 156.881 38.5738C156.586 38.3242 156.245 38.1356 155.877 38.0189C155.509 37.9022 155.122 37.8597 154.737 37.8938C154.353 37.928 153.979 38.0382 153.637 38.2179C153.296 38.3977 152.993 38.6435 152.747 38.9411C152.501 39.2387 152.317 39.5821 152.205 39.9515C152.093 40.3209 152.055 40.7089 152.094 41.093L152.56 46.3138C152.615 46.9286 152.864 47.5102 153.27 47.975C153.676 48.4398 154.219 48.764 154.821 48.9009L164.329 51.0592C164.755 51.154 165.196 51.154 165.621 51.0592L175.13 48.9009C175.732 48.7638 176.275 48.4392 176.681 47.9738C177.088 47.5084 177.336 46.9262 177.39 46.3109L178.65 32.1125L178.656 32.0834L178.653 32.0717L179.662 20.6734C179.697 20.2704 179.648 19.8645 179.518 19.4815C179.388 19.0984 179.18 18.7466 178.907 18.4482C178.634 18.1499 178.302 17.9115 177.932 17.7483C177.561 17.5851 177.162 17.5005 176.757 17.5H153.193C152.42 17.5 151.678 17.8073 151.131 18.3543C150.584 18.9013 150.277 19.6432 150.277 20.4167C150.277 21.1903 150.584 21.9321 151.131 22.4791C151.678 23.0261 152.42 23.3334 153.193 23.3334ZM190.241 6.78421C189.967 6.48519 189.635 6.24626 189.264 6.08257C188.894 5.91889 188.493 5.83403 188.088 5.83337H141.859C141.454 5.83335 141.053 5.91774 140.682 6.08117C140.312 6.2446 139.979 6.48348 139.706 6.78258C139.432 7.08168 139.224 7.43445 139.095 7.81839C138.966 8.20233 138.918 8.60902 138.954 9.01254L143.166 56.245C143.218 56.8351 143.449 57.3952 143.828 57.8507C144.207 58.3061 144.716 58.6352 145.286 58.7942L164.166 64.0588C164.678 64.2031 165.22 64.2031 165.732 64.0588L184.661 58.7738C185.232 58.6153 185.742 58.2864 186.121 57.8309C186.5 57.3754 186.732 56.8151 186.785 56.2246L190.993 9.00962C191.029 8.60681 190.98 8.20104 190.85 7.81798C190.721 7.43492 190.513 7.08291 190.241 6.78421ZM181.152 53.6959L164.947 58.2196L148.795 53.7134L145.05 11.6667H184.903L181.152 53.6959Z" fill="#FFDDE1" fill-opacity="0.84"/>
<path d="M58.3333 108.667L52.5 150.958L35 156.792L17.5 150.958L11.6666 108.667H58.3333Z" stroke="#FFDDE1" stroke-opacity="0.84" stroke-width="2" stroke-linecap="round" stroke-linejoin="round"/>
<path d="M24.7916 120.333H45.2083L32.0833 132H43.75L42.2916 142.208L35 144.396L27.7083 142.208L27.4166 140.75" stroke="#FFDDE1" stroke-opacity="0.84" stroke-width="2" stroke-linecap="round" stroke-linejoin="round"/>
<path d="M104 299.453C102.953 299.453 101.891 299.207 100.969 298.742L91.328 293.752C89.8905 293.041 90.5936 292.795 91.0624 292.658C92.9843 292.07 93.3749 291.947 95.4218 290.922C95.6405 290.813 95.9218 290.854 96.1405 290.977L103.547 294.818C103.812 294.955 104.187 294.955 104.437 294.818L133.297 280.244C133.562 280.107 133.734 279.834 133.734 279.561V250.412C133.734 250.125 133.562 249.865 133.281 249.715L104.437 235.154C104.172 235.018 103.812 235.018 103.547 235.154L74.7186 249.729C74.4374 249.865 74.2655 250.139 74.2655 250.426V279.561C74.2655 279.834 74.4374 280.107 74.7186 280.23L82.6249 284.223C86.9218 286.096 89.5468 283.895 89.5468 281.666V252.9C89.5468 252.49 89.9218 252.176 90.3905 252.176H94.0468C94.4999 252.176 94.8905 252.49 94.8905 252.9V281.68C94.8905 286.684 91.7655 289.555 86.3436 289.555C84.6718 289.555 83.3593 289.555 79.703 287.969L72.1405 284.154C70.2655 283.211 69.1093 281.447 69.1093 279.547V250.412C69.1093 248.525 70.2655 246.748 72.1405 245.805L100.969 231.23C102.797 230.328 105.219 230.328 107.031 231.23L135.891 245.818C137.766 246.762 138.922 248.525 138.922 250.426V279.561C138.922 281.447 137.766 283.211 135.891 284.168L107.031 298.742C106.109 299.207 105.062 299.453 104 299.453ZM127.297 270.729C127.297 265.273 123.078 263.824 114.219 262.799C105.25 261.76 104.344 261.227 104.344 259.395C104.344 257.877 105.109 255.854 111.75 255.854C117.672 255.854 119.859 256.975 120.765 260.475C120.844 260.803 121.187 261.049 121.578 261.049H125.328C125.562 261.049 125.781 260.967 125.937 260.816C126.094 260.666 126.172 260.461 126.156 260.256C125.578 254.227 121 251.424 111.75 251.424C103.516 251.424 98.6093 254.459 98.6093 259.559C98.6093 265.082 103.5 266.613 111.39 267.297C120.844 268.104 121.578 269.32 121.578 270.947C121.578 273.764 118.984 274.967 112.906 274.967C105.265 274.967 103.594 273.285 103.031 269.963C102.969 269.607 102.625 269.348 102.203 269.348H98.4686C97.9999 269.348 97.6405 269.676 97.6405 270.072C97.6405 274.324 100.281 279.396 112.922 279.396C122.047 279.383 127.297 276.225 127.297 270.729Z" fill="#FFDDE1" fill-opacity="0.84"/>
<path d="M297 122.757C293.559 122.757 290.757 125.559 290.757 129C290.757 132.441 293.559 135.243 297 135.243C300.441 135.243 303.243 132.441 303.243 129C303.243 125.559 300.441 122.757 297 122.757ZM279.522 141.408L278.144 141.066C267.889 138.468 262 134.071 262 128.989C262 123.908 267.891 119.511 278.144 116.912L279.522 116.571L279.909 117.938C280.949 121.519 282.279 125.009 283.886 128.374L284.181 128.989L283.886 129.615C282.276 132.979 280.946 136.469 279.909 140.051L279.522 141.408ZM277.507 120.101C269.713 122.289 264.929 125.649 264.929 128.989C264.929 132.329 269.715 135.676 277.507 137.877C278.462 134.842 279.615 131.873 280.959 128.989C279.614 126.106 278.46 123.137 277.507 120.101ZM314.478 141.408L314.091 140.04C313.052 136.462 311.722 132.975 310.114 129.615L309.819 128.989L310.114 128.364C311.724 125 313.054 121.509 314.091 117.927L314.478 116.571L315.856 116.912C326.111 119.511 332 123.908 332 128.989C332 134.071 326.109 138.468 315.856 141.066L314.478 141.408ZM313.041 128.989C314.389 131.871 315.542 134.84 316.493 137.877C324.298 135.679 329.071 132.329 329.071 128.989C329.071 125.649 324.285 122.302 316.493 120.101C315.535 123.135 314.382 126.104 313.041 128.989ZM277.483 120.09L277.096 118.723C274.213 108.56 275.09 101.269 279.5 98.7273C283.829 96.2313 290.768 99.1823 298.048 106.657L299.039 107.672L298.048 108.687C295.463 111.377 293.1 114.272 290.984 117.345L290.586 117.903L289.902 117.96C286.179 118.254 282.487 118.848 278.861 119.738L277.483 120.09ZM283.02 100.757C282.234 100.757 281.539 100.917 280.957 101.258C278.063 102.934 277.551 108.744 279.544 116.582C282.653 115.886 285.805 115.395 288.978 115.112C290.806 112.509 292.803 110.031 294.959 107.694C290.413 103.262 286.106 100.755 283.02 100.755V100.757ZM310.991 160.137C310.98 160.137 310.98 160.137 310.991 160.137C306.833 160.137 301.489 157.015 295.952 151.319L294.961 150.304L295.952 149.289C298.537 146.599 300.9 143.704 303.016 140.631L303.403 140.073L304.087 140.005C307.814 139.721 311.511 139.127 315.139 138.227L316.517 137.886L316.904 139.253C319.787 149.416 318.91 156.696 314.5 159.236C313.434 159.848 312.221 160.159 310.991 160.135V160.137ZM299.039 150.282C303.584 154.714 307.892 157.221 310.978 157.221H310.989C311.763 157.221 312.459 157.05 313.041 156.72C315.935 155.044 316.46 149.234 314.454 141.397C311.345 142.093 308.193 142.58 305.019 142.856C303.192 145.462 301.194 147.943 299.039 150.284V150.282ZM316.517 120.09L315.139 119.738C311.508 118.851 307.813 118.257 304.087 117.96L303.403 117.903L303.016 117.345C300.9 114.272 298.537 111.377 295.952 108.687L294.961 107.672L295.952 106.657C303.232 99.1823 310.171 96.2313 314.5 98.7273C318.91 101.267 319.787 108.56 316.904 118.723L316.517 120.09ZM305.022 115.112C308.195 115.394 311.347 115.885 314.456 116.582C316.462 108.744 315.937 102.932 313.043 101.258C310.16 99.5957 304.737 102.146 299.041 107.696C301.191 110.039 303.188 112.516 305.022 115.114V115.112ZM283.02 160.137C281.788 160.159 280.57 159.853 279.5 159.238C275.09 156.698 274.213 149.416 277.096 139.255L277.483 137.888L278.861 138.229C282.234 139.084 285.949 139.675 289.902 140.008L290.586 140.075L290.973 140.633C293.089 143.706 295.452 146.602 298.037 149.291L299.028 150.306L298.037 151.321C292.511 157.018 287.167 160.139 283.02 160.139V160.137ZM279.546 141.397C277.54 149.234 278.065 155.047 280.959 156.72C283.842 158.361 289.254 155.832 294.961 150.282C292.806 147.941 290.808 145.459 288.981 142.854C285.807 142.579 282.655 142.092 279.546 141.394V141.397ZM297 143.23C294.596 143.23 292.135 143.127 289.663 142.921L288.978 142.864L288.58 142.296C287.184 140.289 285.873 138.226 284.649 136.109C283.424 133.993 282.287 131.826 281.243 129.615L280.948 128.989L281.243 128.364C283.335 123.941 285.789 119.7 288.58 115.683L288.978 115.114L289.663 115.057C294.546 114.646 299.454 114.646 304.337 115.057L305.022 115.114L305.42 115.683C308.215 119.697 310.669 123.939 312.757 128.364L313.052 128.989L312.757 129.615C310.673 134.041 308.219 138.283 305.42 142.296L305.022 142.864L304.337 142.921C301.897 143.126 299.449 143.228 297 143.23ZM290.597 140.062C294.904 140.393 299.096 140.393 303.414 140.062C305.822 136.536 307.962 132.834 309.817 128.987C307.97 125.134 305.826 121.431 303.403 117.912C299.141 117.581 294.859 117.581 290.597 117.912C288.173 121.43 286.028 125.133 284.183 128.987C286.038 132.836 288.182 136.538 290.597 140.062Z" fill="#FFDDE1" fill-opacity="0.84"/>
<path d="M257.595 291.797C257.366 291.797 257.136 291.715 256.928 291.578L254.828 290.02C254.511 289.801 254.664 289.719 254.773 289.678C255.189 289.5 255.277 289.459 255.725 289.131C255.769 289.104 255.834 289.117 255.878 289.145L257.497 290.348C257.552 290.389 257.639 290.389 257.694 290.348L264.016 285.781C264.07 285.74 264.114 285.658 264.114 285.563V276.443C264.114 276.348 264.081 276.266 264.016 276.225L257.694 271.672C257.639 271.631 257.562 271.631 257.497 271.672L251.175 276.225C251.109 276.266 251.077 276.361 251.077 276.443V285.563C251.077 285.645 251.12 285.727 251.175 285.768L252.903 287.012C253.844 287.6 254.423 286.902 254.423 286.219V277.209C254.423 277.086 254.5 276.977 254.609 276.977H255.408C255.506 276.977 255.594 277.072 255.594 277.209V286.219C255.594 287.791 254.916 288.68 253.723 288.68C253.362 288.68 253.067 288.68 252.269 288.188L250.606 286.998C250.202 286.697 249.939 286.15 249.939 285.563V276.443C249.939 275.856 250.191 275.295 250.606 275.008L256.928 270.441C257.333 270.154 257.858 270.154 258.252 270.441L264.573 275.008C264.978 275.309 265.241 275.856 265.241 276.443V285.563C265.241 286.15 264.989 286.711 264.573 286.998L258.252 291.565C258.066 291.715 257.836 291.797 257.595 291.797ZM262.703 282.801C262.703 281.092 261.784 280.641 259.837 280.313C257.869 279.984 257.672 279.82 257.672 279.246C257.672 278.768 257.836 278.139 259.291 278.139C260.592 278.139 261.073 278.494 261.27 279.588C261.292 279.697 261.358 279.766 261.445 279.766H262.266C262.32 279.766 262.364 279.738 262.397 279.697C262.43 279.643 262.452 279.588 262.441 279.52C262.309 277.633 261.314 276.758 259.291 276.758C257.486 276.758 256.414 277.715 256.414 279.301C256.414 281.037 257.486 281.502 259.214 281.721C261.281 281.981 261.445 282.35 261.445 282.856C261.445 283.744 260.877 284.113 259.542 284.113C257.869 284.113 257.497 283.594 257.377 282.555C257.366 282.445 257.289 282.363 257.191 282.363H256.37C256.272 282.363 256.184 282.459 256.184 282.596C256.184 283.922 256.764 285.508 259.531 285.508C261.555 285.508 262.703 284.524 262.703 282.801ZM268.664 275.951C268.664 276.785 268.117 277.469 267.45 277.469C266.783 277.469 266.236 276.785 266.236 275.951C266.236 275.09 266.805 274.434 267.45 274.434C268.106 274.42 268.664 275.09 268.664 275.951ZM268.467 275.951C268.467 275.24 268.008 274.68 267.439 274.68C266.881 274.68 266.422 275.24 266.422 275.951C266.422 276.662 266.881 277.236 267.439 277.236C268.008 277.223 268.467 276.649 268.467 275.951ZM267.975 276.799H267.691C267.68 276.717 267.636 276.279 267.636 276.266C267.614 276.17 267.592 276.115 267.494 276.115H267.253V276.799H266.991V275.09H267.461C267.625 275.09 267.942 275.09 267.942 275.541C267.942 275.856 267.778 275.924 267.68 275.965C267.866 275.979 267.877 276.129 267.909 276.348C267.92 276.484 267.942 276.717 267.975 276.799ZM267.669 275.596C267.669 275.363 267.538 275.363 267.472 275.363H267.253V275.842H267.461C267.636 275.842 267.669 275.691 267.669 275.596ZM238.017 256.113C238.017 255.744 237.864 255.416 237.613 255.238L230.908 250.412C230.798 250.33 230.667 250.289 230.536 250.275H230.47C230.339 250.275 230.219 250.33 230.098 250.412L223.405 255.238C223.153 255.416 223 255.758 223 256.113L223.011 269.102C223.011 269.279 223.087 269.443 223.208 269.539C223.328 269.635 223.481 269.635 223.613 269.539L227.594 266.682C227.845 266.49 227.998 266.162 227.998 265.807V259.736C227.998 259.381 228.152 259.039 228.403 258.861L230.098 257.645C230.23 257.549 230.361 257.508 230.503 257.508C230.645 257.508 230.788 257.549 230.908 257.645L232.603 258.861C232.855 259.039 233.008 259.381 233.008 259.736V265.807C233.008 266.162 233.161 266.504 233.412 266.682L237.394 269.539C237.514 269.635 237.678 269.635 237.798 269.539C237.919 269.457 237.995 269.279 237.995 269.102L238.017 256.113ZM274.68 241.936V266.053C274.68 266.408 274.527 266.75 274.275 266.928L267.57 271.768C267.319 271.945 267.013 271.945 266.761 271.768L260.056 266.928C259.805 266.75 259.652 266.408 259.652 266.053V256.373C259.652 256.018 259.805 255.676 260.056 255.498L266.761 250.658C267.013 250.481 267.319 250.481 267.57 250.658L269.244 251.861C269.43 251.998 269.67 251.82 269.67 251.561V238.709C269.67 238.326 269.998 238.08 270.272 238.272L274.264 241.061C274.516 241.225 274.68 241.566 274.68 241.936ZM269.648 259.559C269.648 259.463 269.605 259.381 269.55 259.34L267.253 257.672C267.188 257.631 267.111 257.631 267.045 257.672L264.748 259.34C264.683 259.381 264.65 259.463 264.65 259.559V262.881C264.65 262.977 264.694 263.059 264.748 263.1L267.045 264.754C267.111 264.795 267.188 264.795 267.242 264.754L269.539 263.1C269.605 263.059 269.638 262.977 269.638 262.881V259.559H269.648ZM292.595 259.463C292.847 259.285 293 258.943 293 258.588V256.25C293 255.895 292.847 255.553 292.595 255.375L285.934 250.535C285.683 250.358 285.377 250.358 285.125 250.535L278.42 255.375C278.169 255.553 278.016 255.895 278.016 256.25V265.93C278.016 266.299 278.169 266.627 278.42 266.805L285.081 271.549C285.322 271.727 285.628 271.727 285.88 271.549L289.905 268.746C290.178 268.555 290.178 268.063 289.905 267.871L283.156 263.031C283.025 262.936 282.948 262.772 282.948 262.594V259.559C282.948 259.381 283.025 259.217 283.156 259.121L285.256 257.604C285.377 257.508 285.541 257.508 285.661 257.604L287.761 259.121C287.881 259.217 287.969 259.381 287.969 259.559V261.938C287.969 262.32 288.308 262.566 288.581 262.375L292.595 259.463ZM284.141 259.941C284.097 259.983 284.064 260.037 284.064 260.106V261.965C284.064 262.033 284.097 262.102 284.141 262.129L285.431 263.059C285.475 263.1 285.541 263.1 285.584 263.059L286.875 262.129C286.919 262.088 286.952 262.033 286.952 261.965V260.106C286.952 260.037 286.919 259.969 286.875 259.941L285.584 259.012C285.541 258.971 285.475 258.971 285.431 259.012L284.141 259.941ZM256.337 265.889V256.264C256.337 255.908 256.162 255.566 255.911 255.389L249.228 250.576C248.998 250.412 248.681 250.385 248.419 250.576L241.736 255.389C241.484 255.566 241.309 255.895 241.309 256.264V265.889C241.309 266.272 241.517 266.6 241.747 266.764L248.441 271.576C248.703 271.768 249.009 271.754 249.25 271.576L255.922 266.764C256.119 266.627 256.261 266.395 256.316 266.121C256.327 266.053 256.337 265.971 256.337 265.889ZM248.211 248.813L248.123 248.881H248.244L248.211 248.813ZM256.545 266.613L256.502 266.518V266.641L256.545 266.613Z" fill="#FFDDE1" fill-opacity="0.84"/>
</svg>
