<svg width="62" height="19" viewBox="0 0 62 19" fill="none" xmlns="http://www.w3.org/2000/svg">
<path d="M10.464 18.408C9.216 18.408 8.592 17.872 8.592 16.8C8.592 16.448 8.64 16.048 8.736 15.6C8.848 15.136 9 14.544 9.192 13.824C9.416 13.072 9.584 12.432 9.696 11.904C9.808 11.376 9.864 10.904 9.864 10.488C9.864 9.4 9.384 8.856 8.424 8.856C8.168 8.856 7.904 8.888 7.632 8.952L5.712 18H2.256L5.52 2.736L9.072 2.256L7.896 7.8H8.088C8.712 7.8 9.288 7.584 9.816 7.152C10.344 6.72 10.752 6.184 11.04 5.544C11.344 4.888 11.496 4.248 11.496 3.624C11.496 2.888 11.272 2.288 10.824 1.824C10.392 1.344 9.736 1.104 8.856 1.104C7.56 1.104 6.424 1.336 5.448 1.8C4.472 2.264 3.712 2.936 3.168 3.816C2.64 4.696 2.376 5.736 2.376 6.936C2.376 7.528 2.432 7.944 2.544 8.184C2.656 8.408 2.712 8.536 2.712 8.568C1.848 8.568 1.2 8.392 0.768 8.04C0.352 7.672 0.144 7.072 0.144 6.24C0.144 5.216 0.56 4.224 1.392 3.264C2.24 2.288 3.32 1.504 4.632 0.912C5.944 0.303999 7.256 -1.43051e-06 8.568 -1.43051e-06C9.768 -1.43051e-06 10.776 0.175999 11.592 0.527999C12.408 0.879999 13.016 1.352 13.416 1.944C13.816 2.52 14.016 3.152 14.016 3.84C14.016 4.592 13.784 5.344 13.32 6.096C12.856 6.848 12.224 7.464 11.424 7.944C12.032 8.12 12.456 8.416 12.696 8.832C12.952 9.232 13.08 9.736 13.08 10.344C13.08 10.808 13.024 11.304 12.912 11.832C12.8 12.344 12.64 12.984 12.432 13.752C12.304 14.248 12.184 14.736 12.072 15.216C11.96 15.696 11.904 16.096 11.904 16.416C11.904 16.784 11.984 17.112 12.144 17.4C12.32 17.688 12.552 17.888 12.84 18C11.864 18.272 11.072 18.408 10.464 18.408ZM17.2941 18.144C16.3821 18.144 15.6221 17.832 15.0141 17.208C14.4061 16.584 14.1021 15.608 14.1021 14.28C14.1021 13.096 14.3341 11.856 14.7981 10.56C15.2781 9.248 15.9821 8.144 16.9101 7.248C17.8541 6.336 18.9741 5.88 20.2701 5.88C20.9261 5.88 21.4141 5.992 21.7341 6.216C22.0541 6.44 22.2141 6.736 22.2141 7.104V7.272L22.4781 6H25.9341L24.2061 14.16C24.1421 14.4 24.1101 14.656 24.1101 14.928C24.1101 15.616 24.4381 15.96 25.0941 15.96C25.5421 15.96 25.9261 15.752 26.2461 15.336C26.5821 14.92 26.8461 14.376 27.0381 13.704H28.0461C27.4541 15.432 26.7181 16.608 25.8381 17.232C24.9741 17.84 24.1021 18.144 23.2221 18.144C22.5501 18.144 22.0061 17.96 21.5901 17.592C21.1901 17.208 20.9501 16.656 20.8701 15.936C20.4061 16.592 19.8861 17.128 19.3101 17.544C18.7501 17.944 18.0781 18.144 17.2941 18.144ZM18.8541 15.816C19.2541 15.816 19.6461 15.632 20.0301 15.264C20.4301 14.88 20.7021 14.36 20.8461 13.704L21.9981 8.28C21.9981 8.072 21.9181 7.872 21.7581 7.68C21.5981 7.472 21.3501 7.368 21.0141 7.368C20.3741 7.368 19.7981 7.744 19.2861 8.496C18.7741 9.232 18.3741 10.128 18.0861 11.184C17.7981 12.224 17.6541 13.144 17.6541 13.944C17.6541 14.744 17.7661 15.256 17.9901 15.48C18.2301 15.704 18.5181 15.816 18.8541 15.816ZM35.7109 18.144C34.7349 18.144 34.0149 17.888 33.5509 17.376C33.1029 16.848 32.8789 16.2 32.8789 15.432C32.8789 15.096 32.9189 14.72 32.9989 14.304C33.0789 13.872 33.1589 13.456 33.2389 13.056C33.3349 12.656 33.3989 12.4 33.4309 12.288C33.5589 11.728 33.6789 11.176 33.7909 10.632C33.9029 10.088 33.9589 9.648 33.9589 9.312C33.9589 8.496 33.6709 8.088 33.0949 8.088C32.6789 8.088 32.3109 8.296 31.9909 8.712C31.6709 9.112 31.4149 9.64 31.2229 10.296L29.5909 18H26.1349L28.6789 6H32.1349L31.8709 7.248C32.6709 6.352 33.6069 5.904 34.6789 5.904C35.4949 5.904 36.1429 6.128 36.6229 6.576C37.1029 7.024 37.3429 7.704 37.3429 8.616C37.3429 9.08 37.2869 9.6 37.1749 10.176C37.0629 10.736 36.9029 11.424 36.6949 12.24C36.5669 12.736 36.4469 13.224 36.3349 13.704C36.2389 14.168 36.1909 14.536 36.1909 14.808C36.1909 15.128 36.2629 15.376 36.4069 15.552C36.5509 15.728 36.7989 15.816 37.1509 15.816C37.6309 15.816 38.0149 15.648 38.3029 15.312C38.5909 14.96 38.8789 14.424 39.1669 13.704H40.1749C39.5829 15.464 38.8949 16.648 38.1109 17.256C37.3429 17.848 36.5429 18.144 35.7109 18.144ZM43.1721 4.704C42.6441 4.704 42.1961 4.52 41.8281 4.152C41.4601 3.784 41.2761 3.336 41.2761 2.808C41.2761 2.28 41.4601 1.832 41.8281 1.464C42.1961 1.08 42.6441 0.887999 43.1721 0.887999C43.7001 0.887999 44.1481 1.08 44.5161 1.464C44.9001 1.832 45.0921 2.28 45.0921 2.808C45.0921 3.336 44.9001 3.784 44.5161 4.152C44.1481 4.52 43.7001 4.704 43.1721 4.704ZM41.5401 18.144C40.7721 18.144 40.1481 17.904 39.6681 17.424C39.2041 16.944 38.9721 16.224 38.9721 15.264C38.9721 14.864 39.0361 14.344 39.1641 13.704L40.7961 6H44.2521L42.5241 14.16C42.4601 14.4 42.4281 14.656 42.4281 14.928C42.4281 15.248 42.5001 15.48 42.6441 15.624C42.8041 15.752 43.0601 15.816 43.4121 15.816C43.8761 15.816 44.3081 15.624 44.7081 15.24C45.1081 14.84 45.3961 14.328 45.5721 13.704H46.5801C45.9881 15.432 45.2281 16.608 44.3001 17.232C43.3721 17.84 42.4521 18.144 41.5401 18.144ZM48.4425 18.144C47.5305 18.144 46.7705 17.832 46.1625 17.208C45.5545 16.584 45.2505 15.608 45.2505 14.28C45.2505 13.096 45.4825 11.856 45.9465 10.56C46.4265 9.248 47.1305 8.144 48.0585 7.248C49.0025 6.336 50.1225 5.88 51.4185 5.88C52.0745 5.88 52.5625 5.992 52.8825 6.216C53.2025 6.44 53.3625 6.736 53.3625 7.104V7.272L53.6265 6H57.0825L55.3545 14.16C55.2905 14.4 55.2585 14.656 55.2585 14.928C55.2585 15.248 55.3305 15.48 55.4745 15.624C55.6345 15.752 55.8905 15.816 56.2425 15.816C56.4665 15.816 56.6425 15.784 56.7705 15.72C56.4185 16.616 56.0825 17.248 55.7625 17.616C55.4425 17.968 54.9785 18.144 54.3705 18.144C53.7145 18.144 53.1785 17.952 52.7625 17.568C52.3625 17.168 52.1145 16.616 52.0185 15.912C51.0425 17.4 49.8505 18.144 48.4425 18.144ZM50.0025 15.816C50.4025 15.816 50.7945 15.632 51.1785 15.264C51.5785 14.88 51.8505 14.36 51.9945 13.704L53.1465 8.28C53.1465 8.072 53.0665 7.872 52.9065 7.68C52.7465 7.472 52.4985 7.368 52.1625 7.368C51.5225 7.368 50.9465 7.744 50.4345 8.496C49.9225 9.232 49.5225 10.128 49.2345 11.184C48.9465 12.224 48.8025 13.144 48.8025 13.944C48.8025 14.744 48.9145 15.256 49.1385 15.48C49.3785 15.704 49.6665 15.816 50.0025 15.816ZM59.4056 18.096C58.8776 18.096 58.4296 17.912 58.0616 17.544C57.6936 17.176 57.5096 16.728 57.5096 16.2C57.5096 15.672 57.6936 15.224 58.0616 14.856C58.4296 14.472 58.8776 14.28 59.4056 14.28C59.9336 14.28 60.3816 14.472 60.7496 14.856C61.1336 15.224 61.3256 15.672 61.3256 16.2C61.3256 16.728 61.1336 17.176 60.7496 17.544C60.3816 17.912 59.9336 18.096 59.4056 18.096Z" fill="#FFDDE1"/>
</svg>
